<svg version="1.1" id="Capa_1" xmlns="http://www.w3.org/2000/svg" xmlns:xlink="http://www.w3.org/1999/xlink"
viewBox="0 0 88.516 88.516" style="enable-background:new 0 0 88.516 88.516;" xml:space="preserve">
<g>
	<g>
		<path style="fill:#ffd43b;" d="M67.512,36.822C56.11,12.287,50.184,2.97,31.553,3.355c-6.635,0.137-5.041-4.805-10.1-2.93
			c-5.055,1.876-0.717,4.62-5.889,8.863C1.051,21.2,2.389,32.221,9.119,58.487c2.838,11.062-6.836,11.605-3.008,22.33
			c2.793,7.819,23.393,11.093,45.127,3.028c21.734-8.063,35.453-24.07,32.66-31.889C80.069,41.231,72.317,47.152,67.512,36.822z
			M48.879,77.238c-19.41,7.202-35.363,2.965-36.037,1.083c-1.162-3.248,6.266-14.081,28.457-22.316
			c22.193-8.234,34.576-5.181,35.871-1.553C77.936,56.594,68.291,70.036,48.879,77.238z M42.641,59.764
			C32.493,63.53,25.44,67.837,20.877,71.715c3.211,2.918,9.23,3.63,15.23,1.404c7.637-2.833,12.326-9.337,10.471-14.526
			c-0.021-0.063-0.055-0.119-0.078-0.181C45.248,58.826,43.963,59.274,42.641,59.764z"/>
	</g>
		</g>
</svg>
