<svg xmlns="http://www.w3.org/2000/svg" height="512" viewBox="0 0 60 49" width="512"><g id="047---Left-and-Right-Arrow" transform="translate(-1 -1)"><path id="Shape" d="m16.393 49.089c.3593389.4959684.9284422.7971625 1.5406331.8153696.6121908.0182072 1.198188-.2486331 1.5863669-.7223696.242-.243-.334.457 3.883-4.824.3859207-.372503.6027021-.8866363.6-1.423v-3h13.997v7.965c0 .8608608.5508602 1.6251385 1.3675445 1.8973666.8166842.2722281 1.715939-.0086779 2.2324555-.6973666 17.1-22.371 12.844-16.882 18.813-24.349.7776955-1.0691879.7740554-2.5187314-.009-3.584l-14.804-19.367c-.376994-.51168659-.976607-.81141819-1.6121516-.8058745s-1.2298377.31568942-1.5978484.8338745c-4.659 5.757-3.784 4.671-3.921 4.867-.589.705-.469.976-.469 4.265h-14v-7.955c.0003362-.85494127-.5427959-1.61555625-1.3515539-1.89274788-.808758-.27719164-1.7042758-.00965584-2.2284461.66574788-5.507 6.863-1.691 1.944-18.832 24.373-.78995272 1.063712-.7850679 2.5206091.012 3.579zm5.622-6.179c-.1.088-.577.7-2.015 2.505v-5.48h2.015zm21.966-39.865c.082-.1-.625-.884 14.823 19.32.2546884.3436891.2647101.8107015.025 1.165l-2.277 2.848c-.2-.328 1.107 1.4-14.944-19.6-.1046139-.1342045-.2259272-.25450964-.361-.358zm-20.342 9.885c.268.051-.926.035 14.361.035v2.97h-16.863zm-1.639-9.925c0 8.678-.05 8.128.125 8.618l-2.125 2.552v-6.2c.0026459-.60203442-.2712553-1.17195533-.743-1.546zm-18.813 24.349 14.813-19.384v7.965c0 1.1045695.8954305 2 2 2h18c1.1032019-.0032948 1.9967052-.8967981 2-2v-7.952l14.8 19.358c.260264.3474606.2635087.8240277.008 1.175l-14.808 19.384v-7.965c0-1.1045695-.8954305-2-2-2h-18c-1.1034291.0027483-1.9972517.8965709-2 2v7.952l-14.805-19.359c-.26041975-.3470369-.26366615-.8234463-.008-1.174z"/><path id="Shape" d="m19 22.935h3c.5522847 0 1-.4477153 1-1s-.4477153-1-1-1h-3c-.5522847 0-1 .4477153-1 1s.4477153 1 1 1z"/><path id="Shape" d="m26 22.935h13c.5522847 0 1-.4477153 1-1s-.4477153-1-1-1h-13c-.5522847 0-1 .4477153-1 1s.4477153 1 1 1z"/></g></svg>