<?xml version="1.0" encoding="iso-8859-1"?>
<!-- Generator: Adobe Illustrator 19.0.0, SVG Export Plug-In . SVG Version: 6.00 Build 0)  -->
<svg version="1.1" id="Layer_1" xmlns="http://www.w3.org/2000/svg" xmlns:xlink="http://www.w3.org/1999/xlink" x="0px" y="0px"
	 viewBox="0 0 512 512" style="enable-background:new 0 0 512 512;" xml:space="preserve">
<path style="fill:#1C74BB;" d="M469.779,503.983H42.221c-18.891,0-34.205-15.314-34.205-34.205V42.221
	c0-18.891,15.314-34.205,34.205-34.205h427.557c18.891,0,34.205,15.314,34.205,34.205v427.557
	C503.983,488.669,488.669,503.983,469.779,503.983z"/>
<g>
	<path style="fill:#035FA1;" d="M42.221,452.676V8.017c-18.891,0-34.205,15.314-34.205,34.205v427.557
		c0,18.891,15.314,34.205,34.205,34.205h427.557c18.891,0,34.205-15.314,34.205-34.205H59.324
		C49.878,469.779,42.221,462.122,42.221,452.676z"/>
	<path style="fill:#035FA1;" d="M221.795,503.983V332.96h-34.205c-4.722,0-8.551-3.829-8.551-8.551V221.795
		c0-4.722,3.829-8.551,8.551-8.551h34.205v-25.653c0-70.84,57.427-128.267,128.267-128.267h85.511c4.722,0,8.551,3.829,8.551,8.551
		v102.614c0,4.722-3.829,8.551-8.551,8.551h-85.511c-4.722,0-8.551,3.829-8.551,8.551v25.653h94.063
		c4.722,0,8.551,3.829,8.551,8.551v102.614c0,4.722-3.829,8.551-8.551,8.551h-94.063v171.023H221.795z"/>
</g>
<path style="fill:#FFFFFF;" d="M350.063,153.386h68.409V84.977h-68.409c-56.582,0-102.614,46.032-102.614,102.614v51.307h-42.756
	v68.409h42.756v196.676h68.409V307.307h102.614v-68.409H315.858v-51.307C315.858,168.73,331.202,153.386,350.063,153.386z"/>
<rect x="247.449" y="469.779" style="fill:#E5E5E5;" width="68.409" height="34.205"/>
<path d="M469.779,0H110.63c-4.428,0-8.017,3.589-8.017,8.017s3.588,8.017,8.017,8.017h359.148c14.441,0,26.188,11.748,26.188,26.188
	v427.557c0,14.44-11.747,26.188-26.188,26.188H323.875V392.818c0-4.427-3.588-8.017-8.017-8.017c-4.428,0-8.017,3.589-8.017,8.017
	v103.148h-52.376v-188.66c0-4.427-3.588-8.017-8.017-8.017H212.71v-52.376h34.739c4.428,0,8.017-3.589,8.017-8.017v-51.307
	c0-52.161,42.436-94.597,94.597-94.597h60.392v52.376h-60.392c-23.281,0-42.221,18.941-42.221,42.221v51.307
	c0,4.427,3.588,8.017,8.017,8.017h94.597v52.376h-94.597c-4.428,0-8.017,3.589-8.017,8.017v51.307c0,4.427,3.588,8.017,8.017,8.017
	c4.428,0,8.017-3.589,8.017-8.017v-43.29h94.597c4.428,0,8.017-3.589,8.017-8.017v-68.409c0-4.427-3.588-8.017-8.017-8.017h-94.597
	v-43.29c0-14.44,11.747-26.188,26.188-26.188h68.409c4.428,0,8.017-3.589,8.017-8.017V84.977c0-4.427-3.588-8.017-8.017-8.017
	h-68.409c-61.002,0-110.63,49.629-110.63,110.63v43.29h-34.739c-4.428,0-8.017,3.589-8.017,8.017v68.409
	c0,4.427,3.588,8.017,8.017,8.017h34.739v180.643H42.221c-14.441,0-26.188-11.748-26.188-26.188V42.221
	c0-14.44,11.747-26.188,26.188-26.188h34.205c4.428,0,8.017-3.589,8.017-8.017S80.854,0,76.426,0H42.221C18.941,0,0,18.941,0,42.221
	v427.557C0,493.059,18.941,512,42.221,512h427.557c23.28,0,42.221-18.941,42.221-42.221V42.221C512,18.941,493.059,0,469.779,0z"/>
<g>
</g>
<g>
</g>
<g>
</g>
<g>
</g>
<g>
</g>
<g>
</g>
<g>
</g>
<g>
</g>
<g>
</g>
<g>
</g>
<g>
</g>
<g>
</g>
<g>
</g>
<g>
</g>
<g>
</g>
</svg>
