<?xml version="1.0" encoding="iso-8859-1"?>
<!-- Generator: Adobe Illustrator 18.0.0, SVG Export Plug-In . SVG Version: 6.00 Build 0)  -->
<!DOCTYPE svg PUBLIC "-//W3C//DTD SVG 1.1//EN" "http://www.w3.org/Graphics/SVG/1.1/DTD/svg11.dtd">
<svg version="1.1" id="Capa_1" xmlns="http://www.w3.org/2000/svg" xmlns:xlink="http://www.w3.org/1999/xlink" x="0px" y="0px"
	 viewBox="0 0 466.972 466.972" style="enable-background:new 0 0 466.972 466.972;" xml:space="preserve">
<g>
	<path d="M233.481,319.656c6.747,0,13.132-2.563,17.982-7.219c2.191-2.104,2.263-5.585,0.159-7.776
		c-2.104-2.19-5.584-2.263-7.776-0.159c-2.791,2.679-6.472,4.154-10.365,4.154c-3.887,0-7.565-1.476-10.356-4.154
		c-2.19-2.103-5.672-2.032-7.776,0.159c-2.104,2.191-2.032,5.673,0.159,7.776C220.358,317.093,226.741,319.656,233.481,319.656z"/>
	<g>
		<circle cx="171.225" cy="253.435" r="10.831"/>
		<circle cx="295.746" cy="253.435" r="10.831"/>
	</g>
	<path d="M398.586,68.387C354.485,24.287,295.852,0,233.486,0c-62.366,0-121,24.287-165.099,68.387S0,171.119,0,233.485
		s24.287,121,68.386,165.1s102.733,68.387,165.099,68.387c62.367,0,121-24.287,165.1-68.387
		c44.099-44.1,68.386-102.733,68.386-165.1S442.684,112.486,398.586,68.387z M342.867,230.808c0.927-6.669,1.411-13.452,1.411-20.19
		c0-19.637-3.847-38.69-11.435-56.633c-1.183-2.799-4.412-4.106-7.207-2.924c-2.798,1.183-4.107,4.41-2.924,7.207
		c7.011,16.58,10.565,34.193,10.565,52.35c0,2.868-0.109,5.744-0.292,8.616c-1.965-1.694-4.075-3.247-6.322-4.635
		c0.214-3.439,0.579-13.025-0.854-25.471c-0.348-3.019-3.068-5.18-6.093-4.835c-3.018,0.348-5.183,3.075-4.835,6.093
		c0.906,7.865,1.032,14.542,0.965,18.943c-4.749-1.987-9.649-3.794-14.691-5.408c0.457-12.839-0.255-51.846-22.94-82.093
		c-1.824-2.432-5.271-2.922-7.7-1.101c-2.431,1.823-2.923,5.271-1.101,7.7c18.955,25.274,20.878,58.558,20.776,72.339
		c-16.246-4.18-33.677-6.512-51.702-6.883v-49.394c0-3.037-2.463-5.5-5.5-5.5c-3.038,0-5.5,2.463-5.5,5.5v49.404
		c-17.676,0.422-34.772,2.741-50.729,6.833c-0.114-13.785,1.795-46.978,20.785-72.298c1.823-2.43,1.33-5.877-1.1-7.7
		c-2.43-1.82-5.877-1.329-7.7,1.101c-22.655,30.206-23.395,69.148-22.942,82.04c-5.166,1.649-10.188,3.495-15.046,5.534
		c-0.071-4.385,0.053-11.074,0.967-19.016c0.348-3.018-1.817-5.745-4.835-6.093c-3.019-0.35-5.746,1.817-6.093,4.835
		c-1.452,12.607-1.058,22.277-0.846,25.599c-2.122,1.334-4.114,2.821-5.982,4.43c-0.179-2.846-0.287-5.697-0.287-8.539
		c0-18.155,3.555-35.769,10.566-52.35c1.183-2.797-0.126-6.024-2.924-7.207c-2.798-1.185-6.024,0.126-7.208,2.924
		c-7.587,17.943-11.435,36.997-11.435,56.633c0,6.714,0.482,13.474,1.402,20.12c-6.814,11.013-9.334,24.567-6.161,37.841
		c1.705,7.134,3.887,14.092,6.486,20.817c-4.916-6.786-9.209-14.017-12.772-21.595c-3.713-7.88-6.659-16.16-8.757-24.618
		c-2.636-10.577-3.972-21.533-3.972-32.564c0-74.158,60.332-134.49,134.49-134.49s134.49,60.332,134.49,134.49
		c0,10.479-1.213,20.92-3.607,31.04c-2.187,9.295-5.39,18.374-9.524,26.989c-3.389,7.082-7.417,13.866-12.004,20.258
		c2.503-6.537,4.618-13.288,6.278-20.209C352.216,255.411,349.694,241.837,342.867,230.808z M128.621,266.022
		c-4.303-18.002,4.811-36.678,21.669-44.409c23.956-10.984,52.694-16.791,83.107-16.791c30.505,0,59.313,5.839,83.312,16.887
		c16.844,7.753,25.938,26.436,21.623,44.421c-6.57,27.396-20.471,52.014-39.142,69.322c-19.067,17.676-41.788,27.019-65.707,27.019
		c-23.931,0-46.662-9.354-65.735-27.054C149.071,318.087,135.175,293.441,128.621,266.022z M165.48,352.567
		c1.162-0.581,2.33-1.153,3.508-1.704c19.236,14.826,41.326,22.608,64.495,22.608c23.14,0,45.204-7.762,64.423-22.547
		c1.184,0.555,2.357,1.129,3.525,1.714c-19.288,18.856-43.17,29.164-67.948,29.164C208.671,381.802,184.768,371.469,165.48,352.567z
		 M311.47,358.145c22.176,13.292,40.838,32.166,53.837,54.62c-33.739,24.918-73.619,39.658-115.819,42.637v-63.889
		C272.329,387.836,293.812,376.327,311.47,358.145z M155.442,358.071c17.149,17.696,37.918,29.083,60.047,33.1v64.075
		c-41.48-3.299-80.654-17.969-113.87-42.515C114.609,390.247,133.268,371.356,155.442,358.071z M226.489,455.852v-63.303
		c2.322,0.162,4.654,0.253,6.995,0.253c1.673,0,3.341-0.048,5.005-0.131v63.24c-1.665,0.036-3.332,0.061-5.003,0.061
		C231.147,455.972,228.816,455.923,226.489,455.852z M390.807,390.807c-5.359,5.359-10.947,10.407-16.735,15.144
		c-15.855-26.802-39.282-48.735-67.024-62.799c5.72-5.348,11.01-11.329,15.828-17.815c17.694-13.813,32.143-31.758,41.799-51.936
		c4.476-9.325,7.945-19.157,10.312-29.218c2.589-10.941,3.901-22.234,3.901-33.565c0-80.224-65.267-145.49-145.49-145.49
		s-145.49,65.267-145.49,145.49c0,11.927,1.446,23.778,4.297,35.219c2.271,9.153,5.461,18.121,9.48,26.648
		c9.752,20.743,24.506,39.122,42.677,53.199c4.728,6.324,9.905,12.166,15.496,17.401c-27.738,14.049-51.159,35.994-67.002,62.83
		c-5.773-4.726-11.345-9.762-16.69-15.108C34.143,348.784,11,292.913,11,233.485s23.143-115.299,65.165-157.32
		C118.187,34.143,174.058,11,233.486,11c59.428,0,115.299,23.143,157.322,65.165c42.021,42.021,65.164,97.893,65.164,157.32
		S432.829,348.785,390.807,390.807z"/>
</g>
<g>
</g>
<g>
</g>
<g>
</g>
<g>
</g>
<g>
</g>
<g>
</g>
<g>
</g>
<g>
</g>
<g>
</g>
<g>
</g>
<g>
</g>
<g>
</g>
<g>
</g>
<g>
</g>
<g>
</g>
</svg>
