<svg xmlns="http://www.w3.org/2000/svg" xmlns:xlink="http://www.w3.org/1999/xlink" version="1.1" id="Layer_1" x="0px" y="0px" viewBox="0 0 490.1 490.1" style="enable-background:new 0 0 490.1 490.1;" xml:space="preserve">
<g>
	<g>
		<path d="M469.4,182.1h-38.2c-3.1-7.2-5.2-13.4-8.3-19.6l26.8-26.8c7.1-7.1,9.2-19.7,0-28.9l-64-64c-8.3-8.3-20.6-8.3-28.9,0    L330,69.6c-6.2-3.1-13.4-6.2-19.6-8.3V23.2c0-11.3-9.3-20.6-20.6-20.6h-89.7c-11.3,0-20.6,9.3-20.6,20.6v33    c-7.2,3.1-13.4,5.2-19.6,8.3l-26.8-26.8c-8.3-8.3-20.6-8.3-28.9,0l-64,64c-8.3,8.3-8.3,20.6,0,28.9L67,157.4    c-3.1,6.2-6.2,13.4-8.3,19.6H20.6C9.3,177,0,186.3,0,197.6v89.7c0,11.3,9.3,20.6,20.6,20.6h36.1c3.1,7.2,5.2,13.4,8.3,19.6    l-26.8,26.8c-8.3,8.3-8.3,20.6,0,28.9l64,64c11.8,11.8,24.8,4.1,28.9,0l26.8-26.8c6.2,3.1,13.4,6.2,19.6,8.3v38.2    c0,11.3,9.3,20.6,20.6,20.6h89.7c10.3,0,19.6-9.3,22.7-15.5v-38.2c7.2-3.1,13.4-5.2,19.6-8.3l26.8,26.8c8.3,7.2,21.7,7.2,28.9,0    l64-64c8.3-8.3,8.3-20.6,0-28.9L423,332.6c3.1-6.2,6.2-13.4,8.3-19.6h38.2c11.3,0,20.6-9.3,20.6-20.6v-89.7    C490,191.4,480.7,182.1,469.4,182.1z M444.6,269.8h-32c-9.3,0-17.5,6.2-19.6,15.5c-3.1,13.4-8.3,25.8-15.5,38.2    c-5.2,8.3-3.1,18.6,3.1,24.8l22.7,22.7l-35.1,35.1l-22.7-22.7c-7.2-6.2-16.5-7.2-24.8-3.1c-11.3,6.2-24.8,12.4-38.2,15.5    c-9.3,2.1-15.5,10.3-15.5,19.6v32h-49.5v-32c0-9.3-6.2-17.5-15.5-19.6c-13.4-3.1-25.8-8.3-38.2-15.5c-8.3-5.2-18.6-3.1-24.8,3.1    l-22.7,22.7L81.2,371l22.7-22.7c6.2-7.2,7.2-16.5,3.1-24.8c-6.2-11.3-12.4-24.8-15.5-38.2c-2.1-9.3-10.3-15.5-19.6-15.5h-32v-49.5    h32c9.3,0,17.5-6.2,19.6-15.5c3.1-13.4,8.3-25.8,15.5-38.2c5.2-8.3,3.1-18.6-3.1-24.8l-22.7-22.7L116.3,84l22.7,22.7    c7.2,6.2,16.5,7.2,24.8,3.1c11.3-6.2,24.8-12.4,38.2-15.5c9.3-2.1,15.5-10.3,15.5-19.6v-32H267v32c0,9.3,6.2,17.5,15.5,19.6    c13.4,3.1,25.8,8.3,38.2,15.5c8.3,5.2,18.6,3.1,24.8-3.1L368.2,84l35.1,35.1l-22.7,22.7c-6.2,7.2-7.2,16.5-3.1,24.8    c6.2,11.3,12.4,24.8,15.5,38.2c2.1,9.3,10.3,15.5,19.6,15.5h32V269.8z"/>
		<path d="M242.4,132.6C181.6,132.6,131,183.1,131,245c0,60.9,49.5,111.4,111.4,111.4S353.8,306.9,353.8,245    S304.3,132.6,242.4,132.6z M242.4,316.2c-39.2,0-71.2-32-71.2-71.2s32-71.2,71.2-71.2s71.2,32,71.2,71.2S281.6,316.2,242.4,316.2z    "/>
	</g>
</g>
<g>
</g>
<g>
</g>
<g>
</g>
<g>
</g>
<g>
</g>
<g>
</g>
<g>
</g>
<g>
</g>
<g>
</g>
<g>
</g>
<g>
</g>
<g>
</g>
<g>
</g>
<g>
</g>
<g>
</g>
</svg>